<svg xmlns="http://www.w3.org/2000/svg" width="880.3" height="905" viewBox="0 0 880.3 905">
  <path id="路径_9444" data-name="路径 9444" d="M917.1,59.5H712.4a35,35,0,0,0,0,70H882.2V299.3a35,35,0,0,0,70,0V94.5a35.124,35.124,0,0,0-35.1-35ZM106.9,334.3a35.038,35.038,0,0,0,35-35V129.5H311.7a35,35,0,0,0,0-70H106.9a35.038,35.038,0,0,0-35,35V299.3A34.974,34.974,0,0,0,106.9,334.3ZM311.6,894.5H141.9V724.7a35,35,0,0,0-70,0V929.5a35.038,35.038,0,0,0,35,35H311.7a35,35,0,1,0-.1-70ZM917.1,689.7a35.038,35.038,0,0,0-35,35V894.5H712.4a35,35,0,0,0,0,70H917.2a35.038,35.038,0,0,0,35-35V724.7a35.124,35.124,0,0,0-35.1-35Zm-148,105a34.952,34.952,0,0,0,24.1-60.3L705,650.2a255.293,255.293,0,0,0,46-131.5c9-141.6-98.7-263.7-240.3-272.6-5.5-.3-10.9-.5-16.3-.5-134.6,0-247.7,104.8-256.3,241-8.9,141.7,98.8,263.7,240.4,272.6,5.5.3,10.9.5,16.3.5a255.836,255.836,0,0,0,162.6-58.2L744.9,785a34.868,34.868,0,0,0,24.2,9.7ZM681.2,514.4A186.967,186.967,0,0,1,494.8,689.7c-4,0-8-.1-12-.4a187.031,187.031,0,0,1,11.4-373.7c4,0,8,.1,11.9.4A187.289,187.289,0,0,1,681.2,514.4Z" transform="translate(-71.9 -59.5)"/>
</svg>
