<svg t="1645154709948" class="icon" viewBox="0 0 1024 1024" version="1.1" xmlns="http://www.w3.org/2000/svg" p-id="13993" width="200" height="200"><path d="M971.6 476.2c-1.9-19.2-19.1-33.3-38.3-31.3-19.2 1.9-33.3 19.1-31.3 38.3 3.7 36.6 2.1 73.8-4.6 110.4-34.8 188.6-199.9 320.9-385.2 320.8-23.5 0-47.3-2.1-71.2-6.5-212.5-39.2-353.5-244-314.4-456.4 19-102.9 76.9-192.3 163.1-251.7 86.2-59.4 190.4-81.6 293.3-62.6 79.9 14.7 151.7 53.1 207.7 109.9h-92.4c-19.3 0-35 15.7-35 35s15.7 35 35 35h182.9c19.3 0 35-15.7 35-35V105.4c0-19.3-15.7-35-35-35s-35 15.7-35 35v98.2C779.5 133.5 692.6 86.2 595.8 68.3 534.5 57 472.8 58 412.4 71.4c-58.3 12.9-112.9 36.7-162.3 70.7-49.4 34-91.1 76.5-123.9 126.4-34 51.6-57 108.9-68.3 170.2-11.3 61.3-10.3 123 3.1 183.4 12.9 58.3 36.7 112.9 70.7 162.3 34 49.4 76.5 91.1 126.4 123.9 51.6 34 108.9 57 170.2 68.3 28.1 5.2 56.2 7.8 84.3 7.8 33.2 0 66.4-3.6 99.1-10.9 58.3-12.9 112.9-36.7 162.3-70.7 49.4-34 91.1-76.5 123.9-126.4 34-51.6 57-108.9 68.3-170.2 7.9-43 9.8-86.8 5.4-130z" p-id="13994" fill="#4a80fc"></path><path d="M666.9 443.7c-12.7-74-77.3-130.5-154.9-130.5-77.6 0-142.2 56.5-154.9 130.5h-31c-19.3 0-35 15.7-35 35v266.2c0 19.3 15.7 35 35 35h371.8c19.3 0 35-15.7 35-35V478.7c0-19.3-15.7-35-35-35h-31zM512 383.2c38.8 0 71.7 25.4 83 60.5H429c11.3-35 44.2-60.5 83-60.5z m150.9 326.7H361.1V513.7h301.8v196.2z" p-id="13995" fill="#4a80fc"></path></svg>