<?xml version="1.0" standalone="no"?><!DOCTYPE svg PUBLIC "-//W3C//DTD SVG 1.1//EN" "http://www.w3.org/Graphics/SVG/1.1/DTD/svg11.dtd"><svg t="1628749180789" class="icon" viewBox="0 0 1024 1024" version="1.1" xmlns="http://www.w3.org/2000/svg" p-id="8240" xmlns:xlink="http://www.w3.org/1999/xlink" width="64" height="64"><defs><style type="text/css"></style></defs><path d="M300.928 640.4608l-0.4608 171.52a6.2464 6.2464 0 0 1-9.3952 5.4016l-149.3248-86.1952a6.144 6.144 0 0 1-3.1232-5.4528l0.4864-171.52c0-4.8384 5.248-7.808 9.3952-5.376l149.3248 86.1952a6.2464 6.2464 0 0 1 3.0976 5.4272zM301.568 417.3312l-0.4352 171.52a6.2464 6.2464 0 0 1-9.4208 5.4016l-149.2992-86.1952a6.144 6.144 0 0 1-3.1232-5.4528l0.4608-171.52c0-4.864 5.248-7.808 9.3952-5.376l149.3248 86.1696a6.2464 6.2464 0 0 1 3.1232 5.4528zM495.1808 752.5888l-0.4864 171.52a6.2464 6.2464 0 0 1-9.3952 5.4016l-149.3248-86.1952a6.144 6.144 0 0 1-3.0976-5.4528l0.4608-171.52c0-4.8384 5.248-7.808 9.3952-5.376l149.3248 86.1952a6.3232 6.3232 0 0 1 3.1232 5.4272zM722.6368 640.4608l0.4608 171.52c0 4.864 5.2736 7.8336 9.4208 5.4016l149.2992-86.1952a6.144 6.144 0 0 0 3.1232-5.4528l-0.4608-171.52a6.2464 6.2464 0 0 0-9.3952-5.376l-149.3248 86.1952a6.2464 6.2464 0 0 0-3.1232 5.4272zM721.9968 417.3312l0.4608 171.52c0 4.864 5.248 7.8336 9.3952 5.4016l149.3248-86.1952a6.144 6.144 0 0 0 3.1232-5.4528l-0.4864-171.52a6.2464 6.2464 0 0 0-9.3952-5.376l-149.3248 86.1696a6.2464 6.2464 0 0 0-3.0976 5.4528zM528.384 752.5888l0.4864 171.52c0 4.864 5.248 7.8336 9.3952 5.4016l149.3248-86.1952a6.144 6.144 0 0 0 3.1232-5.4528l-0.4608-171.52a6.2464 6.2464 0 0 0-9.4208-5.376l-149.2992 86.1952a6.3232 6.3232 0 0 0-3.1232 5.4272zM515.7888 272.7168l148.3008-86.1952a6.272 6.272 0 0 0 0-10.8544l-149.3248-86.1952a6.3232 6.3232 0 0 0-6.272 0L360.192 175.6672a6.272 6.272 0 0 0 0 10.8544l149.3248 86.1952c1.92 1.1776 4.352 1.1776 6.272 0zM322.816 384.896l148.3008-86.1952a6.272 6.272 0 0 0 0-10.8544L321.792 201.6512a6.3232 6.3232 0 0 0-6.2976 0l-148.2752 86.1952a6.272 6.272 0 0 0 0 10.8544l149.2992 86.1952c1.9456 1.1008 4.352 1.1008 6.2976 0zM707.3792 393.1392l153.6512-89.2928a6.528 6.528 0 0 0 0-11.264L706.304 203.264a6.528 6.528 0 0 0-6.528 0l-153.6256 89.2928a6.528 6.528 0 0 0 0 11.264l154.7008 89.3184a6.528 6.528 0 0 0 6.528 0z m-16.5888 24.192l-0.4608 171.52a6.2464 6.2464 0 0 1-9.3952 5.4016l-149.3248-86.1952a6.144 6.144 0 0 1-3.1232-5.4528l0.4864-171.52c0-4.864 5.248-7.808 9.3952-5.376l149.3248 86.1696a6.2464 6.2464 0 0 1 3.0976 5.4528zM332.7744 417.3312l0.4608 171.52c0 4.864 5.2736 7.8336 9.3952 5.4016l149.3248-86.1952a6.144 6.144 0 0 0 3.1232-5.4528l-0.4608-171.52a6.2464 6.2464 0 0 0-9.3952-5.376l-149.3248 86.1696a6.2464 6.2464 0 0 0-3.1232 5.4528zM515.7888 717.7472l148.3008-86.2208a6.272 6.272 0 0 0 0-10.8288l-149.3248-86.2208a6.3232 6.3232 0 0 0-6.272 0l-148.3008 86.2208a6.272 6.272 0 0 0 0 10.8288l149.3248 86.2208c1.9456 1.1008 4.3264 1.1008 6.272 0z" fill="#ffffff" p-id="8241"></path></svg>