<?xml version="1.0" standalone="no"?><!DOCTYPE svg PUBLIC "-//W3C//DTD SVG 1.1//EN" "http://www.w3.org/Graphics/SVG/1.1/DTD/svg11.dtd"><svg t="1636089878704" class="icon" viewBox="0 0 1024 1024" version="1.1" xmlns="http://www.w3.org/2000/svg" p-id="2706" xmlns:xlink="http://www.w3.org/1999/xlink" width="200" height="200"><defs><style type="text/css"></style></defs><path d="M804.571 658.286h73.143a73.143 73.143 0 0 1 73.143 73.143v146.285a73.143 73.143 0 0 1-73.143 73.143H658.286a73.143 73.143 0 0 1-73.143-73.143V731.43a73.143 73.143 0 0 1 73.143-73.143h73.143V512H292.57v146.286h73.143a73.143 73.143 0 0 1 73.143 73.143v146.285a73.143 73.143 0 0 1-73.143 73.143H146.286a73.143 73.143 0 0 1-73.143-73.143V731.43a73.143 73.143 0 0 1 73.143-73.143h73.143V512a73.143 73.143 0 0 1 73.142-73.143H475.43V292.571H365.714a73.143 73.143 0 0 1-73.143-73.142V73.143A73.143 73.143 0 0 1 365.714 0h292.572a73.143 73.143 0 0 1 73.143 73.143v146.286a73.143 73.143 0 0 1-73.143 73.142H548.57v146.286H731.43A73.143 73.143 0 0 1 804.57 512v146.286z" fill="#409EFF" p-id="2707"></path></svg>