<svg t="1639621677460" class="icon" viewBox="0 0 1024 1024" version="1.1" xmlns="http://www.w3.org/2000/svg" p-id="6586" width="200" height="200"><path d="M137.152332 187.556477m23.875647 0l466.1057 0q23.875648 0 23.875647 23.875647l0-0.265285q0 23.875648-23.875647 23.875648l-466.1057 0q-23.875648 0-23.875647-23.875648l0 0.265285q0-23.875648 23.875647-23.875647Z" p-id="6587" fill="#409EFF"></path><path d="M137.152332 439.577202m23.875647 0l209.309845 0q23.875648 0 23.875648 23.875648l0-0.265285q0 23.875648-23.875648 23.875647l-209.309845 0q-23.875648 0-23.875647-23.875647l0 0.265285q0-23.875648 23.875647-23.875648Z" p-id="6588" fill="#409EFF"></path><path d="M137.152332 696.638342m23.875647 0l209.309845 0q23.875648 0 23.875648 23.875648l0-0.265285q0 23.875648-23.875648 23.875647l-209.309845 0q-23.875648 0-23.875647-23.875647l0 0.265285q0-23.875648 23.875647-23.875648Z" p-id="6589" fill="#409EFF"></path><path d="M965.372021 955.025907l-130.785493-116.725389a224.961658 224.961658 0 1 0-34.752331 38.996891l130.785492 116.460104a23.875648 23.875648 0 0 0 33.425907-1.856995l3.18342-3.448705a23.875648 23.875648 0 0 0-1.856995-33.425906z m-313.832125-64.198964a179.332642 179.332642 0 1 1 179.332643-179.332642 179.332642 179.332642 0 0 1-179.332643 179.332642z" p-id="6590" fill="#409EFF"></path><path d="M524.998964 1024H139.805181A89.401036 89.401036 0 0 1 50.66943 934.864249V89.135751A89.401036 89.401036 0 0 1 139.805181 0h721.04456a89.401036 89.401036 0 0 1 89.135751 89.135751v399.519171a26.528497 26.528497 0 1 1-53.056995 0V89.135751A36.078756 36.078756 0 0 0 860.849741 53.056995H139.805181A36.078756 36.078756 0 0 0 103.726425 89.135751v845.728498a36.078756 36.078756 0 0 0 36.078756 36.078756h385.193783a26.528497 26.528497 0 0 1 0 53.056995z" p-id="6591" fill="#409EFF"></path></svg>