<?xml version="1.0" standalone="no"?><!DOCTYPE svg PUBLIC "-//W3C//DTD SVG 1.1//EN" "http://www.w3.org/Graphics/SVG/1.1/DTD/svg11.dtd"><svg t="1629854117718" class="icon" viewBox="0 0 1024 1024" version="1.1" xmlns="http://www.w3.org/2000/svg" p-id="5370" xmlns:xlink="http://www.w3.org/1999/xlink" width="200" height="200"><defs><style type="text/css"></style></defs><path d="M512 0C230.4 0 0 230.4 0 512s230.4 512 512 512 512-230.4 512-512S793.6 0 512 0z m443.733333 477.866667h-196.266666c0-59.733333-8.533333-119.466667-21.333334-170.666667 42.666667-21.333333 81.066667-46.933333 115.2-76.8-8.533333-8.533333-12.8-17.066667-21.333333-21.333333 68.266667 68.266667 115.2 162.133333 123.733333 268.8z m-234.666666 307.2c29.866667 17.066667 59.733333 34.133333 81.066666 59.733333-42.666667 38.4-93.866667 68.266667-149.333333 85.333333 12.8-21.333333 25.6-42.666667 38.4-68.266666 12.8-21.333333 21.333333-46.933333 29.866667-76.8z m-209.066667 170.666666c-55.466667 0-110.933333-72.533333-145.066667-196.266666 46.933333-17.066667 93.866667-25.6 145.066667-25.6s102.4 8.533333 145.066667 25.6c-34.133333 123.733333-89.6 196.266667-145.066667 196.266666z m-183.466667-93.866666c12.8 25.6 25.6 46.933333 38.4 68.266666a401.066667 401.066667 0 0 1-149.333333-85.333333c25.6-21.333333 51.2-42.666667 81.066667-59.733333 12.8 29.866667 21.333333 55.466667 29.866666 76.8z m183.466667-196.266667c-55.466667 0-110.933333 8.533333-162.133333 25.6-8.533333-42.666667-12.8-93.866667-17.066667-145.066667h358.4c0 51.2-8.533333 102.4-17.066667 145.066667-51.2-17.066667-106.666667-25.6-162.133333-25.6z m-179.2-187.733333c4.266667-51.2 8.533333-102.4 17.066667-145.066667 51.2 17.066667 106.666667 25.6 162.133333 25.6s110.933333-8.533333 162.133333-25.6c8.533333 42.666667 12.8 93.866667 17.066667 145.066667H332.8z m-29.866667-238.933334c-29.866667-17.066667-59.733333-38.4-85.333333-59.733333 42.666667-38.4 93.866667-68.266667 149.333333-85.333333-12.8 17.066667-25.6 42.666667-38.4 68.266666-8.533333 21.333333-17.066667 46.933333-25.6 76.8z m209.066667-170.666666c55.466667 0 110.933333 72.533333 145.066667 196.266666-46.933333 17.066667-93.866667 25.6-145.066667 25.6s-102.4-8.533333-145.066667-25.6c34.133333-123.733333 89.6-196.266667 145.066667-196.266666z m183.466667 93.866666c-12.8-25.6-25.6-46.933333-38.4-68.266666 55.466667 17.066667 106.666667 46.933333 149.333333 85.333333-25.6 21.333333-51.2 42.666667-81.066667 59.733333-12.8-29.866667-21.333333-55.466667-29.866666-76.8z m132.266666 38.4l-8.533333-8.533333 8.533333 8.533333z m-21.333333-21.333333l12.8 12.8-12.8-12.8z m-601.6 12.8l-8.533333 8.533333 8.533333-8.533333z m12.8-12.8c-4.266667 4.266667-8.533333 8.533333-8.533333 12.8 0-4.266667 4.266667-8.533333 8.533333-12.8z m-25.6 25.6c-8.533333 8.533333-12.8 17.066667-21.333333 21.333333 34.133333 29.866667 72.533333 55.466667 115.2 76.8-12.8 55.466667-17.066667 110.933333-21.333334 170.666667H68.266667c8.533333-102.4 55.466667-196.266667 123.733333-268.8z m-123.733333 341.333333h196.266666c0 59.733333 8.533333 119.466667 21.333334 170.666667-42.666667 21.333333-81.066667 46.933333-115.2 76.8 8.533333 8.533333 12.8 17.066667 21.333333 21.333333-68.266667-68.266667-115.2-162.133333-123.733333-268.8z m128 277.333334l8.533333 8.533333-8.533333-8.533333z m21.333333 21.333333l-12.8-12.8 12.8 12.8z m601.6-12.8l8.533333-8.533333-8.533333 8.533333z m-12.8 12.8l12.8-12.8-12.8 12.8z m25.6-25.6c8.533333-8.533333 12.8-17.066667 21.333333-21.333333-34.133333-29.866667-72.533333-55.466667-115.2-76.8 12.8-55.466667 17.066667-110.933333 21.333334-170.666667h196.266666c-8.533333 102.4-55.466667 196.266667-123.733333 268.8z" fill="#3AA6EF" p-id="5371"></path></svg>