<?xml version="1.0" standalone="no"?><!DOCTYPE svg PUBLIC "-//W3C//DTD SVG 1.1//EN" "http://www.w3.org/Graphics/SVG/1.1/DTD/svg11.dtd"><svg t="1632986966336" class="icon" viewBox="0 0 1119 1024" version="1.1" xmlns="http://www.w3.org/2000/svg" p-id="6360" xmlns:xlink="http://www.w3.org/1999/xlink" width="218.5546875" height="200"><defs><style type="text/css"></style></defs><path d="M1078.783879 1011.993401H40.665567a28.29696 28.29696 0 0 1-28.598633-28.598633V356.819232a28.29696 28.29696 0 0 1 28.598633-28.598633h140.157436v57.076596H68.23851v569.37827h981.765732V385.297195h-105.887344V328.220599h134.666981a28.477964 28.477964 0 0 1 28.598633 28.598633v626.454867a28.477964 28.477964 0 0 1-28.598633 28.598633z m0 0" fill="#52C41A" p-id="6361"></path><path d="M554.354938 698.977139a27.512609 27.512609 0 0 1-14.781994-3.921754L24.918218 383.185482l30.167335-49.23309 499.571058 303.242046 506.44921-303.242046 29.081311 49.23309L568.955927 695.055385a24.495876 24.495876 0 0 1-14.299316 3.921754z m0 0" fill="#52C41A" p-id="6362"></path><path d="M559.604054 699.580486a28.17629 28.17629 0 0 1-15.747349-4.102758L167.911383 468.981381a28.598633 28.598633 0 0 1-13.695969-24.676879V40.725901A28.29696 28.29696 0 0 1 182.814047 12.127268h758.105114a28.29696 28.29696 0 0 1 28.598633 28.598633v399.0535a28.658968 28.658968 0 0 1-13.69597 24.556211l-381.556446 231.202451a28.477964 28.477964 0 0 1-14.962998 4.102757z m-348.070705-271.50601l348.070705 210.145651 352.957813-214.670752V69.022861H211.654018z m0 0" fill="#52C41A" p-id="6363"></path><path d="M738.074004 236.029225H374.135282a28.598633 28.598633 0 1 1 0-57.257601h363.938722a28.598633 28.598633 0 0 1 0 57.257601z m0 149.26797H374.135282a28.598633 28.598633 0 1 1 0-57.076596h363.938722a28.598633 28.598633 0 1 1 0 57.076596z m0 0" fill="#52C41A" p-id="6364"></path></svg>