<?xml version="1.0" standalone="no"?><!DOCTYPE svg PUBLIC "-//W3C//DTD SVG 1.1//EN" "http://www.w3.org/Graphics/SVG/1.1/DTD/svg11.dtd"><svg t="1628648006496" class="icon" viewBox="0 0 1024 1024" version="1.1" xmlns="http://www.w3.org/2000/svg" p-id="17500" xmlns:xlink="http://www.w3.org/1999/xlink" width="200" height="200"><defs><style type="text/css"></style></defs><path d="M944.896 247.04a46.016 46.016 0 0 1-46.912 44.8H352.768a46.016 46.016 0 0 1-46.912-44.8V163.008a46.016 46.016 0 0 1 46.912-44.8h545.28a46.016 46.016 0 0 1 46.912 44.8V247.04z m0 305.984a46.016 46.016 0 0 1-46.912 44.8H352.768a46.016 46.016 0 0 1-46.912-44.8V468.992a46.016 46.016 0 0 1 46.912-44.8h545.28a46.016 46.016 0 0 1 46.912 44.8v83.712z m0 308.032a46.016 46.016 0 0 1-46.912 44.8H352.768a46.016 46.016 0 0 1-46.912-44.8v-83.776a46.016 46.016 0 0 1 46.912-44.8h545.28a46.016 46.016 0 0 1 46.912 44.8v83.776z" fill="#3C81E6" p-id="17501"></path><path d="M228.928 265.088a23.616 23.616 0 0 1-21.76 25.088h-106.24a23.616 23.616 0 0 1-21.76-25.088V144.576a23.616 23.616 0 0 1 21.76-25.088h106.24a23.616 23.616 0 0 1 21.76 25.088v120.512z m0 306.112a23.616 23.616 0 0 1-21.76 25.088h-106.24a23.616 23.616 0 0 1-21.76-25.088V450.688a23.616 23.616 0 0 1 21.76-25.088h106.24a23.616 23.616 0 0 1 21.76 25.088v120.576z m0 308.16a23.616 23.616 0 0 1-21.76 25.088h-106.24a23.616 23.616 0 0 1-21.76-25.088v-120.576a23.616 23.616 0 0 1 21.76-25.088h106.24a23.616 23.616 0 0 1 21.76 25.088v120.576z" fill="#3C81E6" p-id="17502"></path></svg>