<?xml version="1.0" standalone="no"?><!DOCTYPE svg PUBLIC "-//W3C//DTD SVG 1.1//EN" "http://www.w3.org/Graphics/SVG/1.1/DTD/svg11.dtd"><svg t="1632808131796" class="icon" viewBox="0 0 1024 1024" version="1.1" xmlns="http://www.w3.org/2000/svg" p-id="5973" xmlns:xlink="http://www.w3.org/1999/xlink" width="200" height="200"><defs><style type="text/css"></style></defs><path d="M333.55686 357.50991c-0.226774 11.111948-9.411139 19.956151-20.523087 19.729377s-19.956151-9.411139-19.729377-20.523087c0.680323-30.898018 17.064777-64.432289 40.309157-90.483003 23.329421-26.192448 54.369173-45.666704 84.331747-48.331304 11.083601-0.963791 20.834902 7.228435 21.798693 18.312037 0.935445 11.055254-7.256782 20.806555-18.340383 21.770346-19.16244 1.729155-40.507585 15.874211-57.629056 35.064999-17.461632 19.587643-29.735799 43.597387-30.217694 64.460635z m312.806998 526.711992c-8.447348 28.120031-24.151478 52.696711-44.674566 71.037095-24.49164 21.883734-55.673126 34.979958-89.689292 34.979958-33.98782 0-65.197653-13.096224-89.660946-34.979958-20.523087-18.340383-36.227217-42.917063-44.702912-71.037095H100.517772c-12.019046 0-23.187687-3.826819-32.372052-10.545011-9.127671-6.689846-16.100985-16.214373-19.729376-27.694829h-0.028347c-3.628391-11.480456-3.37327-23.272727 0.283468-34.016167 3.628391-10.686746 10.630052-20.211272 20.551434-27.156239l51.988041-36.425645c13.039531-9.127671 23.130993-20.551434 29.962573-33.676005 6.774887-13.011184 10.318237-27.86491 10.318238-43.909202v-232.330417c0-96.407485 39.430406-184.055808 102.955597-247.552652 43.143838-43.172185 97.42797-75.204075 158.03344-91.305061 8.192227-17.858487 19.445909-33.052375 32.797254-44.249363 16.32776-13.691507 35.745322-21.600266 56.721958-21.600266s40.394198 7.908759 56.721958 21.600266c13.351345 11.196988 24.605027 26.390876 32.797254 44.249363 60.60547 16.100985 114.889602 48.132876 158.03344 91.305061 63.525191 63.496844 102.955597 151.145167 102.955597 247.552652v232.330417c0 16.044292 3.543351 30.898018 10.318238 43.909202 6.83158 13.124571 16.923043 24.548334 29.962573 33.676005l52.016388 36.425645c9.893035 6.944967 16.923043 16.469494 20.523087 27.156239 3.656738 10.715092 3.911859 22.507364 0.311815 33.931126-3.656738 11.53715-10.630052 21.090023-19.78607 27.77987-9.156018 6.718193-20.353006 10.545012-32.343705 10.545011h-277.146717z m-71.51899 41.046175c12.217473-10.941867 22.138855-24.973536 28.800354-41.046175h-183.290444c6.661499 16.072639 16.582881 30.104307 28.828701 41.046175 17.178164 15.363969 39.033551 24.57668 62.816521 24.57668s45.666704-9.212712 62.844868-24.57668zM481.158676 86.316023c-1.247259 1.048832-2.494519 2.182704-3.685085 3.344923 11.367069-1.133872 22.875872-1.700808 34.526409-1.700809s23.187687 0.566936 34.554756 1.700809c-1.218913-1.162219-2.466172-2.296091-3.713432-3.344923-9.184365-7.710331-19.729377-12.132433-30.841324-12.132433-11.083601 0-21.656959 4.422102-30.841324 12.132433z m450.572472 731.489314l-51.988041-36.397298c-18.623851-13.067877-32.995682-29.338944-42.746983-48.076182-9.779648-18.793932-14.91042-39.912302-14.910419-62.533053v-232.330417c0-85.267191-34.894918-162.767357-91.106633-218.979072s-133.711881-91.106633-218.979072-91.106633c-85.238844 0-162.767357 34.894918-218.979072 91.106633s-91.106633 133.711881-91.106633 218.979072v232.330417c0 22.620751-5.102425 43.739121-14.910419 62.533053-9.722954 18.737238-24.123131 35.008305-42.746983 48.076182l-51.988041 36.397298c-2.607906 1.842542-4.450448 4.308714-5.385893 7.086702-0.935445 2.721293-0.963791 5.811095 0.028347 8.929243v0.085041c0.963791 3.061455 2.74964 5.555974 5.074078 7.256782 2.296091 1.672462 5.244159 2.636253 8.532388 2.636253h822.992803c3.259883 0 6.20795-0.963791 8.504041-2.636253 2.324438-1.700808 4.110287-4.195327 5.074078-7.256782 0.992138-3.146495 0.963791-6.264644 0.056694-9.014284-0.963791-2.777987-2.806334-5.244159-5.41424-7.086702z" fill="#d81e06" p-id="5974"></path></svg>