<?xml version="1.0" standalone="no"?><!DOCTYPE svg PUBLIC "-//W3C//DTD SVG 1.1//EN" "http://www.w3.org/Graphics/SVG/1.1/DTD/svg11.dtd"><svg t="1632893858963" class="icon" viewBox="0 0 1063 1024" version="1.1" xmlns="http://www.w3.org/2000/svg" p-id="10489" xmlns:xlink="http://www.w3.org/1999/xlink" width="207.6171875" height="200"><defs><style type="text/css"></style></defs><path d="M1056.283855 445.582044L677.020986 353.623423a10.896831 10.896831 0 0 0-2.126211 0 8.859212 8.859212 0 0 0-8.859212 8.859212v571.06481h-60.508418V8.911481a8.859212 8.859212 0 0 0-8.859212-8.859212 10.896831 10.896831 0 0 0-2.126211 0L7.175962 142.508399a8.859212 8.859212 0 0 0-6.910186 8.859212v863.418808a8.859212 8.859212 0 0 0 8.859212 8.859213h1045.387024a8.859212 8.859212 0 0 0 8.859212-8.859213V453.909704a8.859212 8.859212 0 0 0-7.087369-8.32766z m-541.38645 487.788217H90.452555v-717.596178l424.44485-102.944044z m457.666896 0H756.488118V466.046824l215.987591 52.357943v414.965494z" fill="#FAAD14" p-id="10490"></path><path d="M160.528923 369.747189h288.544537v90.541147H160.528923z m0 231.225435h288.544537v90.541147H160.528923z" fill="#FAAD14" p-id="10491"></path></svg>