<?xml version="1.0" standalone="no"?><!DOCTYPE svg PUBLIC "-//W3C//DTD SVG 1.1//EN" "http://www.w3.org/Graphics/SVG/1.1/DTD/svg11.dtd"><svg t="1655263134764" class="icon" viewBox="0 0 1024 1024" version="1.1" xmlns="http://www.w3.org/2000/svg" p-id="7190" xmlns:xlink="http://www.w3.org/1999/xlink" width="200" height="200"><defs><style type="text/css">@font-face { font-family: feedback-iconfont; src: url("//at.alicdn.com/t/font_1031158_u69w8yhxdu.woff2?t=1630033759944") format("woff2"), url("//at.alicdn.com/t/font_1031158_u69w8yhxdu.woff?t=1630033759944") format("woff"), url("//at.alicdn.com/t/font_1031158_u69w8yhxdu.ttf?t=1630033759944") format("truetype"); }
</style></defs><path d="M960 281.6a76.8 76.8 0 0 0-76.8-76.8H140.8a76.8 76.8 0 0 0-76.8 76.8V140.8a76.8 76.8 0 0 1 76.8-76.8h332.8a76.8 76.8 0 0 1 76.8 76.8v12.8h332.8a76.8 76.8 0 0 1 76.8 76.8v51.2z" fill="#1989FA" p-id="7191"></path><path d="M64 268.8m76.8 0l742.4 0q76.8 0 76.8 76.8l0 537.6q0 76.8-76.8 76.8l-742.4 0q-76.8 0-76.8-76.8l0-537.6q0-76.8 76.8-76.8Z" fill="#1989FA" opacity=".3" p-id="7192"></path><path d="M281.6 448m32 0l358.4 0q32 0 32 32l0 0q0 32-32 32l-358.4 0q-32 0-32-32l0 0q0-32 32-32Z" fill="#1989FA" p-id="7193"></path><path d="M281.6 588.8m32 0l358.4 0q32 0 32 32l0 0q0 32-32 32l-358.4 0q-32 0-32-32l0 0q0-32 32-32Z" fill="#1989FA" p-id="7194"></path><path d="M281.6 729.6m32 0l358.4 0q32 0 32 32l0 0q0 32-32 32l-358.4 0q-32 0-32-32l0 0q0-32 32-32Z" fill="#1989FA" p-id="7195"></path></svg>
