<?xml version="1.0" standalone="no"?><!DOCTYPE svg PUBLIC "-//W3C//DTD SVG 1.1//EN" "http://www.w3.org/Graphics/SVG/1.1/DTD/svg11.dtd"><svg t="1628671173870" class="icon" viewBox="0 0 1299 1024" version="1.1" xmlns="http://www.w3.org/2000/svg" p-id="3206" xmlns:xlink="http://www.w3.org/1999/xlink" width="253.7109375" height="200"><defs><style type="text/css"></style></defs><path d="M314.330358 851.483708a301.885474 301.885474 0 0 1-188.173355-54.907946 298.061399 298.061399 0 0 1 121.504574-537.030015 358.741533 358.741533 0 0 1 62.700401-3.896227c7.864607 0 11.760835 0 11.760835-7.864607A340.198377 340.198377 0 0 1 584.757403 8.671992a329.014761 329.014761 0 0 1 321.510915 102.095589 321.94383 321.94383 0 0 1 78.429615 137.089484c3.896227 7.864607 3.896227 11.760835 11.760835 7.864607a291.351229 291.351229 0 0 1 301.813321 270.499197 298.782922 298.782922 0 0 1-227.352086 317.470384 351.021231 351.021231 0 0 1-90.190449 7.864607h-31.386277a39.250884 39.250884 0 0 1-39.178731-39.178731 40.261017 40.261017 0 0 1 39.178731-43.291416h70.565008a208.664625 208.664625 0 0 0 192.069582-168.547913 212.993766 212.993766 0 0 0-176.41252-254.769983 237.381264 237.381264 0 0 0-74.461235 0c-31.386277 3.896227-50.939566-7.864607-54.907946-39.178731a256.718096 256.718096 0 0 0-188.173355-207.726644A264.221942 264.221942 0 0 0 388.719441 302.692859a42.642045 42.642045 0 0 1-58.804173 39.178731A215.446947 215.446947 0 0 0 79.041512 526.076565a211.550719 211.550719 0 0 0 184.204975 235.216693c23.521669 3.896227 50.939566 0 78.429615 3.896227a40.405322 40.405322 0 0 1 43.291416 47.043339 38.673665 38.673665 0 0 1-39.178731 35.282504c-3.96838 3.96838-15.729214 3.96838-31.458429 3.96838z" fill="#3C81E6" p-id="3207"></path><path d="M612.247452 710.425844c-27.417897 31.386277-50.939566 54.907946-74.461236 82.325843a48.486386 48.486386 0 0 1-58.804173 11.760834 42.49774 42.49774 0 0 1-7.864607-66.66878l93.798068-105.847512c19.625442-19.625442 35.282504-39.178731 54.907946-58.804173a44.01294 44.01294 0 0 1 74.461235 0c47.043339 54.907946 97.982905 109.743739 145.026243 160.683305a43.72433 43.72433 0 0 1 0 62.700401 41.198997 41.198997 0 0 1-62.7004-7.864607c-23.521669-27.417897-47.043339-50.939566-66.668781-74.461236l-3.896227-3.896227v266.530817a45.311682 45.311682 0 0 1-47.043339 47.043339 41.631912 41.631912 0 0 1-39.178731-47.043339v-254.69783c-7.575998-3.607618-7.575998-7.864607-7.575998-11.760835z" fill="#3C81E6" p-id="3208"></path></svg>