<?xml version="1.0" standalone="no"?><!DOCTYPE svg PUBLIC "-//W3C//DTD SVG 1.1//EN" "http://www.w3.org/Graphics/SVG/1.1/DTD/svg11.dtd"><svg t="1639620708035" class="icon" viewBox="0 0 1024 1024" version="1.1" xmlns="http://www.w3.org/2000/svg" p-id="2569" xmlns:xlink="http://www.w3.org/1999/xlink" width="200" height="200"><defs><style type="text/css"></style></defs><path d="M876.85 584.84H740.33c-30.27 0-57.6-18.1-69.42-45.96l-46.72-110.13c-6.78-15.99-2.43-34.31 10.49-45.92 46.15-41.44 71.18-105.85 56.48-175.45-14.54-68.9-70.28-124.58-139.21-138.97-118.2-24.68-222.26 64.86-222.26 178.71 0 54.81 24.31 103.7 62.58 137.12 13.32 11.63 18.03 30.21 11.12 46.49l-45.88 108.15c-11.82 27.86-39.16 45.96-69.42 45.96H147.14c-20.48 0-37.08 16.6-37.08 37.08v145.27c0 20.48 16.6 37.08 37.08 37.08h729.71c20.48 0 37.08-16.6 37.08-37.08V621.93c0.01-20.48-16.59-37.09-37.08-37.09z m-17.36 292.88H165.11c-10.21 0-18.48 8.27-18.48 18.48v36.18c0 10.21 8.27 18.48 18.48 18.48h694.38c10.21 0 18.48-8.27 18.48-18.48V896.2c0-10.2-8.27-18.48-18.48-18.48z" fill="#409EFF" p-id="2570"></path></svg>