<svg xmlns="http://www.w3.org/2000/svg" width="884.352" height="845.088" viewBox="0 0 884.352 845.088">
  <g id="组_18697" data-name="组 18697" transform="translate(-69.824 -100.896)">
    <path id="路径_9439" data-name="路径 9439" d="M929.792,442.368c0-8.192-8.192-16.384-16.384-16.384-45.056-12.288-81.92-36.864-102.4-77.824-24.576-40.96-28.672-86.016-16.384-131.072,4.1-8.192,0-16.384-8.192-24.576-40.96-36.864-90.112-65.536-139.264-81.92-8.192-4.1-16.384,0-24.576,4.1-32.768,32.768-73.728,53.248-118.784,53.248s-86.016-20.48-118.784-53.248c-4.1-4.1-12.288-4.1-20.48,0-53.248,16.384-98.3,45.056-139.264,81.92-8.192,4.1-8.192,12.288-8.192,20.48C229.376,262.144,225.28,307.2,204.8,348.16c-24.576,40.96-61.44,69.632-102.4,77.824-8.192,0-16.384,8.192-16.384,16.384-4.1,28.672-8.192,53.248-8.192,81.92s4.1,53.248,8.192,81.92c0,8.192,8.192,16.384,16.384,16.384,45.056,12.288,81.92,36.864,102.4,77.824,24.576,40.96,28.672,86.016,16.384,131.072-4.1,8.192,0,16.384,8.192,24.576,40.96,36.864,90.112,65.536,139.264,81.92h8.192c4.1,0,12.288-4.1,16.384-8.192,32.768-32.768,73.728-53.248,118.784-53.248s86.016,20.48,118.784,53.248c4.1,8.192,16.384,8.192,24.576,4.1,53.248-16.384,98.3-45.056,139.264-81.92,8.192-4.1,8.192-16.384,8.192-24.576-12.288-45.056-8.192-90.112,16.384-131.072s61.44-69.632,102.4-77.824c8.192,0,16.384-8.192,16.384-16.384,4.1-28.672,8.192-53.248,8.192-81.92C937.984,499.712,933.888,471.04,929.792,442.368Zm-40.96,143.36c-49.152,16.384-90.112,49.152-118.784,94.208a214.184,214.184,0,0,0-20.48,151.552c-32.768,24.576-65.536,45.056-102.4,61.44C610.3,856.064,561.152,835.584,507.9,835.584s-102.4,20.48-139.264,57.344c-36.864-16.384-73.728-36.864-102.4-61.44a214.184,214.184,0,0,0-20.48-151.552c-24.576-45.056-69.632-77.824-118.784-94.208-4.1-20.48-4.1-40.96-4.1-61.44s0-40.96,4.1-61.44c45.056-12.288,86.016-45.056,114.688-94.208a214.184,214.184,0,0,0,20.48-151.552c32.768-24.576,65.536-45.056,102.4-57.344,36.864,36.864,86.016,57.344,139.264,57.344s102.4-20.48,139.264-57.344c36.864,16.384,73.728,36.864,102.4,61.44-8.192,49.152,0,102.4,24.576,147.456s69.632,77.824,118.784,94.208c4.1,20.48,4.1,40.96,4.1,61.44S892.928,565.248,888.832,585.728Z"/>
    <path id="路径_9439_-_轮廓" data-name="路径 9439 - 轮廓" d="M639.968,100.9h0a23.873,23.873,0,0,1,10.218,2.271c50.266,16.838,100.532,46.442,141.6,83.4,11.775,11.76,15.166,22.872,10.372,33.315-12.075,44.891-6.79,86.661,15.712,124.163,18.284,36.517,50.737,61.225,96.754,73.977,11.861.718,22.778,11.817,23.16,23.706,3.939,27.572,8.033,56.02,15.822,75.494l.572,1.43v1.541c0,26.024-3.351,49.1-6.9,73.535l-1.3,9.033c-.389,11.989-11.491,23.174-23.468,23.716-37.773,7.784-72.892,34.705-96.445,73.961-22.616,37.694-27.84,79.7-15.526,124.851l.282,1.034v1.071c0,9.233,0,24.507-11.549,31.16-44.867,40.229-91,67.325-140.964,82.8a34.225,34.225,0,0,1-14.357,3.226c-8.769,0-15.827-3.593-19.608-9.916C591.206,901.868,552.386,884.544,512,884.544c-40.706,0-79.825,17.6-113.127,50.9-5.088,5.088-15.158,10.535-22.041,10.535h-9.49l-1.232-.411c-50.429-16.81-100.89-46.486-142.086-83.563-11.775-11.76-15.166-22.873-10.372-33.315,12.075-44.891,6.789-86.661-15.712-124.163-18.284-36.517-50.737-61.225-96.754-73.977-11.859-.718-22.774-11.813-23.16-23.7l-1.3-9.033c-3.548-24.433-6.9-47.511-6.9-73.535s3.351-49.1,6.9-73.535l1.3-9.033C78.416,429.731,89.518,418.546,101.5,418c37.773-7.784,72.892-34.706,96.444-73.96,19.144-38.341,23.2-81.7,11.43-124.851l-.282-1.034v-1.071c0-8.253,0-20.6,11.572-27.084,44.859-40.219,90.97-67.3,140.928-82.776a34.506,34.506,0,0,1,14.732-3.612c5.852,0,10.818,1.872,14.361,5.415,33.3,33.3,72.421,50.9,113.127,50.9s79.825-17.6,113.127-50.9l.918-.918,1.165-.582C625.238,104.421,632.289,100.9,639.968,100.9Zm298.2,420.8c-8.165-21.247-12.3-50.186-16.3-78.194l-.08-.563v-.569c0-3.761-4.623-8.384-8.384-8.384h-1.071L911.3,433.7c-51.069-13.928-87.221-41.5-107.45-81.964-24.3-40.455-30.263-87.93-16.947-136.755l.208-.764.354-.709c.788-1.577,2.883-5.765-6.693-15.341-39.293-35.348-87.749-63.858-136.137-79.987L644.1,118l-.509-.254a7.811,7.811,0,0,0-3.621-.852c-3.609,0-7.989,2.054-12.651,4.374-36.171,35.771-78.851,54.666-123.511,54.666-45.042,0-88.073-19.223-124.441-55.591a4.743,4.743,0,0,0-3.047-.729,19.146,19.146,0,0,0-8.2,2.227l-.592.3-.633.195c-48.19,14.828-92.763,41.068-136.265,80.22l-.805.725-.969.484c-3.142,1.571-3.725,4.234-3.767,12.273,12.47,46.664,7.935,93.561-13.135,135.7-26.3,43.879-65.552,73.6-107.986,82.091l-.777.155H102.4c-3.761,0-8.384,4.623-8.384,8.384v.569l-1.46,10.115c-3.612,24.88-6.732,46.368-6.732,71.236s3.12,46.356,6.732,71.236l1.46,10.115v.569c0,3.761,4.623,8.384,8.384,8.384h1.071l1.034.282c51.069,13.928,87.221,41.5,107.45,81.964,24.3,40.455,30.263,87.93,16.947,136.755l-.208.764-.354.709c-.788,1.577-2.883,5.765,6.693,15.341,38.962,35.051,86.932,63.377,134.913,79.577h6.886c1.73-.127,7.734-2.856,10.727-5.849,36.368-36.368,79.4-55.591,124.441-55.591s88.073,19.223,124.441,55.591l.918.918.581,1.161c1.067,2.134,4.555,2.364,6.006,2.364a18.115,18.115,0,0,0,7.837-1.846l.592-.3.633-.195c48.19-14.827,92.762-41.068,136.265-80.22l.805-.725.969-.484c3.537-1.768,3.755-10.773,3.769-16.363-12.947-48.457-6.9-95.545,17.525-136.245,26-43.341,65.256-73.066,107.691-81.553l.777-.155h.792c3.761,0,8.384-4.623,8.384-8.384v-.569l1.46-10.115C934.983,567.05,938.05,545.928,938.172,521.694ZM641.3,150.2l5.021,2.232c43.046,19.132,78.157,40.219,104.357,62.676l3.427,2.937-.742,4.452c-8.019,48.116.622,99.986,23.708,142.31,22.18,40.664,63.838,73.632,114.291,90.449l4.4,1.468.91,4.552c4.251,21.257,4.251,42.482,4.251,63.009s0,41.752-4.251,63.009l-.91,4.552-4.4,1.468c-47.089,15.7-86.7,47.134-114.564,90.914-23.916,43.884-30.915,95.707-19.434,145.458l1.171,5.074-4.166,3.125c-36.06,27.045-69.091,46.857-103.951,62.35L645.4,902.47l-3.885-3.885c-35.468-35.468-82.917-55-133.607-55s-98.139,19.533-133.607,55l-3.885,3.885-5.021-2.232c-43.046-19.131-78.156-40.218-104.357-62.676l-3.678-3.153,1.089-4.72a207.111,207.111,0,0,0-19.708-145.922c-22.18-40.664-63.838-73.632-114.291-90.449l-4.4-1.468-.91-4.552c-4.251-21.257-4.251-42.482-4.251-63.009s0-41.752,4.251-63.009l.97-4.848,4.77-1.3c43.772-11.938,82.8-44.085,109.883-90.521a206.989,206.989,0,0,0,19.6-145.722l-1.171-5.074,4.166-3.125c39.244-29.433,71.525-47.485,104.67-58.533l4.69-1.564,3.5,3.5c35.468,35.468,82.917,55,133.607,55s98.139-19.533,133.607-55ZM503.808,225.088c-53.27,0-103.252-19.908-141.322-56.175-28.727,10.205-57.295,26.306-91.424,51.51a222.98,222.98,0,0,1-22.375,152.048c-28.328,48.568-68.892,82.662-114.742,96.688-3.066,18.1-3.066,36.13-3.066,55.129,0,19.091,0,37.2,3.111,55.393,52.235,18.525,95.364,53.472,118.793,96.424A222.989,222.989,0,0,1,275.09,828.478c23.594,19.465,54.455,37.915,91.868,54.923,38.022-36.037,87.854-55.817,140.946-55.817s102.917,19.777,140.938,55.81c30.623-14.056,60.033-31.753,91.808-55.24a222.983,222.983,0,0,1,22.374-152.049c29.235-45.974,70.148-79.082,118.792-96.42,3.111-18.191,3.111-36.305,3.111-55.4s0-37.2-3.111-55.393c-52.235-18.524-95.364-53.472-118.793-96.424-24.042-44.077-33.484-97.783-26.152-148.069-23.626-19.541-54.573-38.062-92.119-55.131C606.732,205.308,556.9,225.088,503.808,225.088Z"/>
    <path id="路径_9440" data-name="路径 9440" d="M507.9,380.928c-77.824,0-143.36,65.536-143.36,147.456S430.08,675.84,507.9,675.84c8.192,0,16.384,0,24.576-4.1,12.288-4.1,20.48-12.288,16.384-24.576,0-4.1-4.1-12.288-8.192-12.288-4.1-4.1-8.192-4.1-16.384-4.1H507.9c-57.344,0-102.4-45.056-102.4-102.4s45.056-102.4,102.4-102.4,102.4,45.056,102.4,102.4v16.384c-4.1,12.288,4.1,24.576,16.384,24.576,4.1,0,12.288,0,16.384-4.1s8.192-8.192,8.192-12.288c0-8.192,4.1-16.384,4.1-24.576,0-40.96-16.384-73.728-40.96-102.4C581.632,393.216,544.768,380.928,507.9,380.928Z"/>
    <path id="路径_9440_-_轮廓" data-name="路径 9440 - 轮廓" d="M507.9,372.928c42.967,0,80.7,15.947,112.153,47.4,29.275,34.118,43.3,69.316,43.3,108.057,0,5.081-1.163,9.731-2.287,14.228-.93,3.721-1.809,7.237-1.809,10.348,0,7.41-5.6,13.007-10.535,17.945-6.439,6.439-16.977,6.439-22.041,6.439a24.94,24.94,0,0,1-20.453-10.464,27.307,27.307,0,0,1-3.931-23.3V528.384c0-52.935-41.465-94.4-94.4-94.4s-94.4,41.465-94.4,94.4,41.465,94.4,94.4,94.4h16.384c7.869,0,14.245,0,20.148,4.737,7.208,2.514,11.714,11.872,12.35,18.176,4.336,14.7-3.713,27.414-21.245,33.457-9.7,4.686-19.221,4.686-27.637,4.686-83.46,0-151.36-69.737-151.36-155.456S424.444,372.928,507.9,372.928ZM626.688,561.344c7.417,0,9.927-.953,10.727-1.753,2.053-2.053,5.488-5.488,5.878-6.927-.029-4.785,1.134-9.435,2.258-13.932.93-3.721,1.809-7.237,1.809-10.348,0-35.241-12.4-66.125-39.034-97.194C580.4,403.3,546.474,388.928,507.9,388.928c-74.638,0-135.36,62.56-135.36,139.456S433.266,667.84,507.9,667.84c7.778,0,14.5,0,21-3.251l.509-.254.539-.18c14.529-4.843,12.117-12.079,11.324-14.457l-.411-1.232v-1.3a11.48,11.48,0,0,0-1.883-4.288h-1.623l-2.343-2.343c-1.573-1.573-2.675-1.753-10.727-1.753H507.9c-61.907,0-110.4-48.493-110.4-110.4s48.493-110.4,110.4-110.4,110.4,48.493,110.4,110.4v17.682l-.411,1.232a11.213,11.213,0,0,0,1.322,10.227A9.016,9.016,0,0,0,626.688,561.344Z"/>
  </g>
</svg>
