<svg xmlns="http://www.w3.org/2000/svg" width="832" height="960.679" viewBox="0 0 832 960.679">
  <path id="路径_9758" data-name="路径 9758" d="M800,992.512H224a128.006,128.006,0,0,1-128-128v-704a128.006,128.006,0,0,1,128-128H635.616c11.072-2.08,22.832.528,31.408,9.088L916.7,291.28a34.947,34.947,0,0,1,9.84,19.68A31.888,31.888,0,0,1,928,320.512v544A128.006,128.006,0,0,1,800,992.512ZM672,146.448V288.512H814.064ZM864,352.512H640a31.991,31.991,0,0,1-32-32v-224H224a64,64,0,0,0-64,64v704a64,64,0,0,0,64,64H800a64,64,0,0,0,64-64Zm-160,256H544v160a32,32,0,0,1-64,0v-160H320a32,32,0,0,1,0-64H480v-160a32,32,0,0,1,64,0v160H704a32,32,0,0,1,0,64Z" transform="translate(-96 -31.833)" fill="#1890ff"/>
</svg>
