<?xml version="1.0" standalone="no"?><!DOCTYPE svg PUBLIC "-//W3C//DTD SVG 1.1//EN" "http://www.w3.org/Graphics/SVG/1.1/DTD/svg11.dtd"><svg t="1636089590641" class="icon" viewBox="0 0 1024 1024" version="1.1" xmlns="http://www.w3.org/2000/svg" p-id="1767" xmlns:xlink="http://www.w3.org/1999/xlink" width="200" height="200"><defs><style type="text/css"></style></defs><path d="M970.24 686.72a54.4 54.4 0 0 0-54.4 54.4v174.72H108.16V108.16h174.72a55.04 55.04 0 0 0 54.4-54.4 53.76 53.76 0 0 0-53.12-53.76H53.76A54.4 54.4 0 0 0 0 53.76v916.48a52.48 52.48 0 0 0 16 37.76 52.48 52.48 0 0 0 37.76 16h916.48a54.4 54.4 0 0 0 53.76-53.76v-229.12a54.4 54.4 0 0 0-53.76-54.4z" p-id="1768" fill="#409EFF"></path><path d="M426.88 247.68m51.2 0l494.72 0q51.2 0 51.2 51.2l0 0q0 51.2-51.2 51.2l-494.72 0q-51.2 0-51.2-51.2l0 0q0-51.2 51.2-51.2Z" p-id="1769" fill="#409EFF"></path><path d="M674.56 597.12m0-51.2l0-494.72q0-51.2 51.2-51.2l0 0q51.2 0 51.2 51.2l0 494.72q0 51.2-51.2 51.2l0 0q-51.2 0-51.2-51.2Z" p-id="1770" fill="#409EFF"></path></svg>