<?xml version="1.0" standalone="no"?><!DOCTYPE svg PUBLIC "-//W3C//DTD SVG 1.1//EN" "http://www.w3.org/Graphics/SVG/1.1/DTD/svg11.dtd"><svg t="1632366579455" class="icon" viewBox="0 0 1024 1024" version="1.1" xmlns="http://www.w3.org/2000/svg" p-id="8847" xmlns:xlink="http://www.w3.org/1999/xlink" width="200" height="200"><defs><style type="text/css"></style></defs><path d="M512 616.448a24.348444 24.348444 0 1 0 22.755556 24.348444 23.779556 23.779556 0 0 0-22.755556-24.348444z" fill="#4A80FC" p-id="8848"></path><path d="M512 0a512 512 0 1 0 512 512A512 512 0 0 0 512 0z m217.770667 739.555556H294.229333a40.504889 40.504889 0 0 1-35.271111-60.757334l217.656889-374.101333a41.073778 41.073778 0 0 1 70.769778 0l217.656889 374.101333a40.504889 40.504889 0 0 1-35.271111 60.757334z" fill="#4A80FC" p-id="8849"></path><path d="M512 358.968889c-13.994667 0-25.031111 15.928889-24.462222 34.133333l5.006222 178.176a19.456 19.456 0 1 0 38.912 0l5.006222-178.176c0.568889-17.635556-10.467556-34.133333-24.462222-34.133333z" fill="#4A80FC" p-id="8850"></path></svg>