<svg t="1639621611115" class="icon" viewBox="0 0 1024 1024" version="1.1" xmlns="http://www.w3.org/2000/svg" p-id="6237" width="200" height="200"><path d="M272.290909 377.018182h372.363636c16.290909 0 27.927273-11.636364 27.927273-27.927273s-11.636364-27.927273-27.927273-27.927273h-372.363636c-16.290909 0-27.927273 11.636364-27.927273 27.927273s11.636364 27.927273 27.927273 27.927273zM272.290909 477.090909h256c16.290909 0 27.927273-11.636364 27.927273-27.927273s-11.636364-27.927273-27.927273-27.927272h-256c-16.290909 0-27.927273 11.636364-27.927273 27.927272s11.636364 27.927273 27.927273 27.927273zM272.290909 579.490909h256c16.290909 0 27.927273-11.636364 27.927273-27.927273s-11.636364-27.927273-27.927273-27.927272h-256c-16.290909 0-27.927273 11.636364-27.927273 27.927272s11.636364 27.927273 27.927273 27.927273zM556.218182 651.636364c0-16.290909-11.636364-27.927273-27.927273-27.927273h-256c-16.290909 0-27.927273 11.636364-27.927273 27.927273s11.636364 27.927273 27.927273 27.927272h256c16.290909 0 27.927273-11.636364 27.927273-27.927272zM667.927273 740.072727h-162.909091c-16.290909 0-27.927273 11.636364-27.927273 27.927273s11.636364 27.927273 27.927273 27.927273h162.909091c16.290909 0 27.927273-11.636364 27.927272-27.927273s-11.636364-27.927273-27.927272-27.927273z" fill="#409EFF" p-id="6238"></path><path d="M893.672727 337.454545c-4.654545-18.618182-16.290909-34.909091-32.581818-46.545454s-34.909091-13.963636-55.854545-11.636364c-6.981818 2.327273-11.636364 4.654545-18.618182 6.981818V256c0-6.981818-2.327273-13.963636-6.981818-18.618182l-139.636364-139.636363c-4.654545-4.654545-11.636364-6.981818-18.618182-6.981819h-418.909091C160.581818 88.436364 128 121.018182 128 162.909091v698.181818c0 41.890909 32.581818 74.472727 74.472727 74.472727h512c41.890909 0 74.472727-32.581818 74.472728-74.472727V537.6l62.836363-93.090909 32.581818-51.2c9.309091-16.290909 13.963636-37.236364 9.309091-55.854546z m-86.109091 4.654546c2.327273-4.654545 6.981818-6.981818 11.636364-6.981818s9.309091 0 13.963636 2.327272 6.981818 6.981818 6.981819 11.636364 0 9.309091-2.327273 13.963636l-18.618182 27.927273-30.254545-18.618182 18.618181-30.254545zM635.345455 605.090909l16.290909-23.272727 30.254545 18.618182-13.963636 20.945454-34.909091 20.945455 2.327273-37.236364z m74.472727-48.872727l-27.927273-20.945455 76.8-118.690909 30.254546 18.618182-79.127273 121.018182z m-60.509091-372.363637l44.218182 44.218182h-25.6c-9.309091 0-18.618182-9.309091-18.618182-18.618182V183.854545z m65.163636 695.854546h-512c-9.309091 0-18.618182-9.309091-18.618182-18.618182V162.909091c0-9.309091 9.309091-18.618182 18.618182-18.618182h390.981818V209.454545c0 41.890909 32.581818 74.472727 74.472728 74.472728h65.163636v72.145454L586.472727 581.818182c-2.327273 4.654545-4.654545 6.981818-4.654545 11.636363l-11.636364 102.4c-2.327273 11.636364 4.654545 20.945455 11.636364 25.6 4.654545 2.327273 9.309091 4.654545 16.290909 4.654546 4.654545 0 9.309091-2.327273 13.963636-4.654546l88.436364-51.2c4.654545-2.327273 6.981818-4.654545 9.309091-9.30909l23.272727-37.236364V861.090909c0 9.309091-9.309091 18.618182-18.618182 18.618182z" fill="#409EFF" p-id="6239"></path></svg>