<svg xmlns="http://www.w3.org/2000/svg" width="16.546" height="16.573" viewBox="0 0 16.546 16.573">
  <path id="路径_9823" data-name="路径 9823" d="M76.892,73.374a4.653,4.653,0,0,0,4.146-5.928.516.516,0,0,0-.863-.225l-.893.9a1.524,1.524,0,0,1-2.108,0,1.5,1.5,0,0,1,0-2.112l.893-.894a.516.516,0,0,0-.223-.864,4.648,4.648,0,0,0-5.932,4.481,4.612,4.612,0,0,0,.064.746l-.612.561-2.956-2.96a1.556,1.556,0,0,0-.3-1.767l-1.089-1.091a.516.516,0,0,0-.731,0L64.825,65.68a.517.517,0,0,0,0,.733L65.914,67.5a1.539,1.539,0,0,0,1.764.3L70.6,70.733l-5.018,4.6a3.1,3.1,0,1,0,4.4,4.378l3.529-3.863,4.176,4.182A2.069,2.069,0,0,0,80.614,77.1Zm-9.517-6.6a.528.528,0,0,1-.731,0l-.724-.725.731-.732.723.724A.52.52,0,0,1,67.375,66.771Zm1.863,12.222a2.114,2.114,0,0,1-2.925,0A2.073,2.073,0,0,1,66.3,76.08l6.591-6.04.012-.015a.509.509,0,0,0,.091-.121l.024-.046.017-.047a.533.533,0,0,0,.024-.147l0-.049a.485.485,0,0,0-.007-.053l0-.02A3.615,3.615,0,0,1,76.615,65.1l-.172.172a2.535,2.535,0,0,0,0,3.576,2.52,2.52,0,0,0,3.57,0l.172-.172v.049a3.612,3.612,0,0,1-4.433,3.532l-.02,0a.534.534,0,0,0-.155,0,.522.522,0,0,0-.1.021l-.04.013a.5.5,0,0,0-.051.026l-.038.021a.538.538,0,0,0-.081.067l-.015.012-6.015,6.585Zm10.644.3a1.057,1.057,0,0,1-1.462,0L74.4,75.274l1.462-1.465,4.017,4.024a1.036,1.036,0,0,1,0,1.465Zm-12.106-2.8a1.036,1.036,0,1,0,1.036,1.036A1.036,1.036,0,0,0,67.776,76.494Z" transform="translate(-64.673 -64.064)" fill="#1890ff"/>
</svg>
