<?xml version="1.0" standalone="no"?><!DOCTYPE svg PUBLIC "-//W3C//DTD SVG 1.1//EN" "http://www.w3.org/Graphics/SVG/1.1/DTD/svg11.dtd"><svg t="1632893109046" class="icon" viewBox="0 0 1090 1024" version="1.1" xmlns="http://www.w3.org/2000/svg" p-id="10343" xmlns:xlink="http://www.w3.org/1999/xlink" width="212.890625" height="200"><defs><style type="text/css"></style></defs><path d="M1054.097116 422.02382a35.095536 35.095536 0 0 0 35.53423-35.095536V266.19964a35.095536 35.095536 0 0 0-20.794105-32.463371L559.95197 3.597292a35.621969 35.621969 0 0 0-29.129295 0L21.410971 232.683403a35.095536 35.095536 0 0 0-20.881844 32.375632v120.728644a35.095536 35.095536 0 0 0 35.095536 35.53423h78.087568v359.729243h-78.087568a35.53423 35.53423 0 0 0-35.53423 35.095536v170.476566a35.095536 35.095536 0 0 0 35.095536 35.53423l1017.770542 1.052866a35.095536 35.095536 0 0 0 35.53423-35.095536V817.638249a35.095536 35.095536 0 0 0-35.095535-35.53423h-78.087568v-359.729244zM71.42211 287.695656l473.789735-212.591209 473.263302 213.556336V350.955359L71.509849 349.990232z m508.885271 493.706452v-359.729244H708.142871v359.729244z m-70.629766-359.729244v359.729244H381.842125v-359.729244z m-324.633708 0h125.466541v359.729244h-125.466541z m832.72933 531.170937L70.807938 951.878674V852.470568l946.965299 0.965127z m-113.44632-170.564305h-125.466541v-359.729243h125.466541z m0 0" fill="#1890FF" p-id="10344"></path></svg>