<?xml version="1.0" standalone="no"?><!DOCTYPE svg PUBLIC "-//W3C//DTD SVG 1.1//EN" "http://www.w3.org/Graphics/SVG/1.1/DTD/svg11.dtd"><svg t="1631856172214" class="icon" viewBox="0 0 1024 1024" version="1.1" xmlns="http://www.w3.org/2000/svg" p-id="2571" xmlns:xlink="http://www.w3.org/1999/xlink" width="200" height="200"><defs><style type="text/css"></style></defs><path d="M890.092 959.41V116.577L754.61 0 308.775 165.415v40.96L713.65 70.892v948.382h270.966v-61.44h-94.523zM163.84 699.47l212.677-42.535V549.81L163.84 604.948v94.523z m0 321.38h212.677V908.996L163.84 924.75v96.098z m0-160.69l212.677-20.48V732.554L163.84 768.788v91.372z m0-322.954l212.677-58.29V367.066L163.84 437.957v99.25z" p-id="2572" fill="#1296db"></path><path d="M611.25 258.363l-119.73-72.468L40.96 348.16 39.385 1024h59.864V381.243l338.708-110.277v749.883h174.868V258.363z" p-id="2573" fill="#1296db"></path></svg>