<svg t="1644460688357" class="icon" viewBox="0 0 1024 1024" version="1.1" xmlns="http://www.w3.org/2000/svg" p-id="2207" width="200" height="200"><path d="M498.346667 824.32L201.386667 527.36c-11.946667-11.946667-3.413333-34.133333 13.653333-34.133333H375.466667c11.946667 0 20.48-8.533333 20.48-20.48V54.613333c0-11.946667 8.533333-20.48 20.48-20.48h189.44c11.946667 0 20.48 8.533333 20.48 20.48v418.133334c0 11.946667 8.533333 20.48 20.48 20.48h160.426666c18.773333 0 27.306667 22.186667 13.653334 34.133333L525.653333 824.32c-6.826667 6.826667-20.48 6.826667-27.306666 0zM916.48 989.866667H107.52c-18.773333 0-35.84-15.36-35.84-35.84 0-18.773333 15.36-35.84 35.84-35.84h810.666667c18.773333 0 35.84 15.36 35.84 35.84-1.706667 20.48-17.066667 35.84-37.546667 35.84z" fill="#0fc090" p-id="2208"></path></svg>