<?xml version="1.0" standalone="no"?><!DOCTYPE svg PUBLIC "-//W3C//DTD SVG 1.1//EN" "http://www.w3.org/Graphics/SVG/1.1/DTD/svg11.dtd"><svg t="1656036430420" class="icon" viewBox="0 0 1024 1024" version="1.1" xmlns="http://www.w3.org/2000/svg" p-id="19643" xmlns:xlink="http://www.w3.org/1999/xlink" width="200" height="200"><defs><style type="text/css">@font-face { font-family: feedback-iconfont; src: url("//at.alicdn.com/t/font_1031158_u69w8yhxdu.woff2?t=1630033759944") format("woff2"), url("//at.alicdn.com/t/font_1031158_u69w8yhxdu.woff?t=1630033759944") format("woff"), url("//at.alicdn.com/t/font_1031158_u69w8yhxdu.ttf?t=1630033759944") format("truetype"); }
</style></defs><path d="M810.666667 106.666667a42.666667 42.666667 0 0 1 42.666666 42.666666v725.333334a42.666667 42.666667 0 0 1-42.666666 42.666666H213.333333a42.666667 42.666667 0 0 1-42.666666-42.666666v-725.333334a42.666667 42.666667 0 0 1 42.666666-42.666666h597.333334z m-195.498667 386.730666a130.986667 130.986667 0 0 0-144.597333-37.248c1.962667 1.152 3.797333 2.474667 5.546666 3.84l53.248 53.504a56.32 56.32 0 0 1-23.722666 97.408 56.490667 56.490667 0 0 1-55.978667-18.090666L396.373333 539.648a49.578667 49.578667 0 0 1-4.010666-5.973333 130.645333 130.645333 0 0 0 36.522666 144.64 130.986667 130.986667 0 0 0 148.437334 16.298666l137.514666 137.386667L768 778.965333l-137.258667-137.258666a130.602667 130.602667 0 0 0-15.573333-148.309334zM341.333333 234.666667h-21.333333a21.333333 21.333333 0 0 0-20.992 17.493333L298.666667 256v21.333333a21.333333 21.333333 0 0 0 17.493333 20.992L320 298.666667H341.333333a21.333333 21.333333 0 0 0 20.992-17.493334L362.666667 277.333333V256a21.333333 21.333333 0 0 0-21.333334-21.333333z m362.666667 0h-256a21.333333 21.333333 0 0 0-20.992 17.493333L426.666667 256v21.333333a21.333333 21.333333 0 0 0 17.493333 20.992L448 298.666667h256a21.333333 21.333333 0 0 0 20.992-17.493334L725.333333 277.333333V256a21.333333 21.333333 0 0 0-21.333333-21.333333z" fill="#1296db" p-id="19644"></path></svg>
