<?xml version="1.0" standalone="no"?><!DOCTYPE svg PUBLIC "-//W3C//DTD SVG 1.1//EN" "http://www.w3.org/Graphics/SVG/1.1/DTD/svg11.dtd"><svg t="1656036243274" class="icon" viewBox="0 0 1024 1024" version="1.1" xmlns="http://www.w3.org/2000/svg" p-id="17803" xmlns:xlink="http://www.w3.org/1999/xlink" width="200" height="200"><defs><style type="text/css">@font-face { font-family: feedback-iconfont; src: url("//at.alicdn.com/t/font_1031158_u69w8yhxdu.woff2?t=1630033759944") format("woff2"), url("//at.alicdn.com/t/font_1031158_u69w8yhxdu.woff?t=1630033759944") format("woff"), url("//at.alicdn.com/t/font_1031158_u69w8yhxdu.ttf?t=1630033759944") format("truetype"); }
</style></defs><path d="M511.564255 226.412936h248.635915v56.385362H511.564255v-56.385362zM262.971915 395.525447h497.097532v56.363574H262.950128v-56.363574z" fill="#1B7AFF" p-id="17804"></path><path d="M870.813957 0.936851H402.628085c-37.909787 1.132936-74.250894 13.638809-103.053617 35.556766L120.04766 194.821447C92.508596 218.74383 76.843574 251.686128 76.56034 286.131745v662.811234c0.130723 17.952681 8.388085 35.186383 22.658724 47.692255a77.976511 77.976511 0 0 0 53.269787 18.82417h718.325106c40.524255-0.871489 73.553702-29.717787 75.776-66.516425V68.586213c0.283234-18.083404-7.690894-35.556766-22.092255-48.433022-14.248851-12.636596-33.704851-19.586723-53.683745-19.21634zM325.043745 84.970213v121.137021a22.048681 22.048681 0 0 1-8.932766 15.381787 26.362553 26.362553 0 0 1-18.344851 4.945702H157.957447L325.065532 84.970213zM884.34383 930.358468c0.152511 7.56017-3.202723 14.72817-9.085277 20.196766-6.013277 5.446809-14.118128 8.409872-22.506213 8.540596H168.981787c-17.342638-0.23966-31.177532-12.767319-31.046808-28.105532V282.798298H356.657021c17.211915 0 31.046809-12.636596 31.046809-28.127319V57.300426H853.188085c17.211915 0 31.046809 12.636596 31.046809 28.236255l0.130723 844.8z" fill="#1B7AFF" p-id="17805"></path><path d="M248.548766 788.131404l-2.658043-27.495489a1001.559149 1001.559149 0 0 0 63.074043-8.802043l0.544681 12.636596 0.849702 13.006979c-20.697872 3.093787-41.395745 6.688681-61.810383 10.653957z m93.685106-172.707404l-4.618893 66.276766a247.219745 247.219745 0 0 0 46.428595-39.129872c11.329362-12.418723 20.697872-25.905021 28.388766-40.393532h25.44749a195.278979 195.278979 0 0 0 31.046808 43.966638c14.96783 15.490723 31.874723 29.238468 50.894979 41.134298l-19.564936 23.050893a223.537021 223.537021 0 0 1-20.981107-14.989617v14.749958H371.47234v-15.490723c-5.882553 4.444596-11.765106 8.671319-17.756595 12.636595l-16.362213-18.954893-1.41617 22.549787h12.593021c-1.525106 30.218894-3.072 60.328851-4.33566 90.308085a45.469957 45.469957 0 0 1-3.22451 15.730383 19.869957 19.869957 0 0 1-5.577532 7.79983c-3.638468 2.723404-7.843404 4.575319-12.593021 5.446808a114.92766 114.92766 0 0 1-20.414639 1.873702H274.301277l-5.882554-24.292766h25.469277c3.616681 0.130723 7.40766 0 11.046128-0.479319a18.954894 18.954894 0 0 0 5.316085-1.873702 9.324936 9.324936 0 0 0 3.769191-4.706042c0.827915-2.723404 1.111149-5.577532 1.111149-8.540596l2.658043-55.884255H257.220085l6.710468-86.713192h28.955234l-5.032851 61.331064h18.453787l5.316086-69.392341H253.995574v-26.013957h88.238298z m84.469107 96.757106c6.971915 20.567149 13.420936 41.134298 19.281702 61.570724 7.40766-19.434213 14.553872-39.260596 21.395064-59.326639l28.388766 8.061277c-9.782468 25.883234-19.564936 51.635745-29.499915 77.410043h39.434893v28.497702h-157.587063v-28.497702h87.105361c3.072-7.298723 6.165787-14.597447 9.085277-22.048681l-25.164255 6.449021c-5.599319-21.809021-12.309787-43.356596-19.848171-65.056681l27.408341-7.059064z m-46.995064 2.353022c7.974128 23.660936 15.686809 47.321872 23.094468 71.004595l-28.105532 7.79983a2755.431489 2755.431489 0 0 0-21.961532-70.982808l26.972596-7.821617z m6.710468-32.571915h76.908936a205.322894 205.322894 0 0 1-38.018723-43.988426 207.305532 207.305532 0 0 1-38.890213 43.988426z m253.668766-73.597277v87.214298c11.460085-14.989617 21.395064-30.850723 29.499915-47.692255 6.971915-13.747745 12.593021-28.105532 16.645447-42.986213l34.816 6.449021c-3.072 10.523234-6.710468 20.806809-10.762894 30.828936h92.987915v30.611064h-19.303489a304.324085 304.324085 0 0 1-15.512511 56.494298 184.690383 184.690383 0 0 1-22.811234 40.393532c8.279149 7.79983 16.928681 14.858894 26.297191 21.177192 12.026553 8.43166 24.750298 16.340426 38.040511 23.530212l-21.961532 26.645788a318.899745 318.899745 0 0 1-64.599149-47.060426c-8.932766 8.279149-18.453787 15.708596-28.388766 22.528-13.290213 9.303149-26.841872 18.083404-40.96 26.144681l-13.987404-19.957107v11.656171h-33.55234v-62.681873l-35.665703 13.246639c-5.316085 2.113362-10.501447 4.204936-15.534297 6.449021l-14.662809-28.759149a12.288 12.288 0 0 0 5.577532-4.706043 14.815319 14.815319 0 0 0 1.394383-7.799829v-113.729362h33.290894v111.37634c8.388085-2.614468 16.77617-5.446809 25.447489-8.540595v-131.072h33.704851v0.239659z m0 102.094979v101.463149a410.536851 410.536851 0 0 0 36.776851-22.048681c8.932766-6.100426 17.342638-12.636596 25.164255-19.957106a193.862809 193.862809 0 0 1-30.632851-59.827745l-12.288 14.488511-19.020255-14.118128z m99.415149 4.335659a206.150809 206.150809 0 0 0 10.218213-42.005787h-54.11949l-1.394383 2.614468a184.973617 184.973617 0 0 0 11.743319 39.870639c4.618894 10.675745 10.610383 20.697872 17.756596 29.979234 6.557957-9.521021 11.874043-19.69566 15.795745-30.458554z" fill="#1B7AFF" p-id="17806"></path></svg>
